<svg width="132" height="41" viewBox="0 0 132 41" fill="none" xmlns="http://www.w3.org/2000/svg">
<rect x="7.28906" y="22.8738" width="25.52" height="4" rx="2" transform="rotate(-45 7.28906 22.8738)" fill="#141C2E"/>
<rect x="8.96997" y="29.4761" width="25.52" height="2.28571" rx="1.14286" transform="rotate(-45 8.96997 29.4761)" fill="#00F5E9"/>
<rect x="13.0227" y="31.8884" width="25.52" height="4.57143" rx="2.28571" transform="rotate(-45 13.0227 31.8884)" fill="#141C2E"/>
<path d="M42.1758 16.252C42.1758 15.5098 42.3594 14.834 42.7266 14.2246C43.1016 13.6152 43.6016 13.1309 44.2266 12.7715C44.8594 12.4043 45.5547 12.2207 46.3125 12.2207H54.9375V14.6816H46.3125C45.8594 14.6816 45.4688 14.8418 45.1406 15.1621C44.8125 15.4824 44.6484 15.8691 44.6484 16.3223V17.4707C44.6484 17.8848 44.8125 18.2402 45.1406 18.5371C45.4688 18.834 45.8594 18.9824 46.3125 18.9824H51.6211C52.3867 18.9824 53.082 19.166 53.707 19.5332C54.332 19.8926 54.8281 20.3809 55.1953 20.998C55.5703 21.6074 55.7578 22.2832 55.7578 23.0254V24.8418C55.7578 25.584 55.5703 26.2637 55.1953 26.8809C54.8281 27.4902 54.332 27.9785 53.707 28.3457C53.082 28.7051 52.3867 28.8848 51.6211 28.8848H42.1875V26.4121H51.6211C52.082 26.4121 52.4727 26.2598 52.793 25.9551C53.1211 25.6426 53.2852 25.2676 53.2852 24.8301V23.0371C53.2852 22.5996 53.1211 22.2246 52.793 21.9121C52.4727 21.5996 52.082 21.4434 51.6211 21.4434H46.3125C45.5547 21.4434 44.8594 21.2676 44.2266 20.916C43.6016 20.5566 43.1016 20.0762 42.7266 19.4746C42.3594 18.873 42.1758 18.209 42.1758 17.4824V16.252ZM60.1875 12.2207L64.7578 18.5371L69.3047 12.2207H72.3047L66.0234 20.9277V28.8848H63.4922V20.9277L57.1758 12.2207H60.1875ZM74.1914 16.252C74.1914 15.5098 74.375 14.834 74.7422 14.2246C75.1172 13.6152 75.6172 13.1309 76.2422 12.7715C76.875 12.4043 77.5703 12.2207 78.3281 12.2207H86.9531V14.6816H78.3281C77.875 14.6816 77.4844 14.8418 77.1562 15.1621C76.8281 15.4824 76.6641 15.8691 76.6641 16.3223V17.4707C76.6641 17.8848 76.8281 18.2402 77.1562 18.5371C77.4844 18.834 77.875 18.9824 78.3281 18.9824H83.6367C84.4023 18.9824 85.0977 19.166 85.7227 19.5332C86.3477 19.8926 86.8438 20.3809 87.2109 20.998C87.5859 21.6074 87.7734 22.2832 87.7734 23.0254V24.8418C87.7734 25.584 87.5859 26.2637 87.2109 26.8809C86.8438 27.4902 86.3477 27.9785 85.7227 28.3457C85.0977 28.7051 84.4023 28.8848 83.6367 28.8848H74.2031V26.4121H83.6367C84.0977 26.4121 84.4883 26.2598 84.8086 25.9551C85.1367 25.6426 85.3008 25.2676 85.3008 24.8301V23.0371C85.3008 22.5996 85.1367 22.2246 84.8086 21.9121C84.4883 21.5996 84.0977 21.4434 83.6367 21.4434H78.3281C77.5703 21.4434 76.875 21.2676 76.2422 20.916C75.6172 20.5566 75.1172 20.0762 74.7422 19.4746C74.375 18.873 74.1914 18.209 74.1914 17.4824V16.252ZM90.832 12.2207H94.043L101.297 25.3105V12.2207H103.77V28.8848H100.559L93.3047 15.9707V28.8848H90.832V12.2207ZM107.051 12.2207H109.523V28.8848H107.051V12.2207ZM117.68 20.5527L111.645 12.2207H114.668L119.227 18.5371L123.773 12.2207H126.785L120.762 20.5527L126.785 28.8848H123.773L119.227 22.5566L114.668 28.8848H111.645L117.68 20.5527Z" fill="#141C2E"/>
</svg>
